<?xml version="1.0" encoding="UTF-8"?>
<svg xmlns="http://www.w3.org/2000/svg" viewBox="0 0 1095 1095" width="1095" height="1095">
<path d="M869 328.96C864.17 328.96 859.33 328.96 854.5 328.96C850.55 324.22 847.1 319.01 843.47 314.03C840.68 310.21 837.26 306.85 834.47 303.03C832.67 300.57 829.89 298.88 828 296.5C824.33 291.87 820.23 287.73 816 283.5C804.52 272.02 793.01 260.94 780.03 251.47C778.51 250.36 777.49 248.64 775.97 247.53C768.67 242.2 755.84 232.14 748 229C748 310.65 748 392.3 748 473.94C744 473.94 740 473.94 736 473.94C736 398.3 736 322.65 736 247C687.5 334 639 421 590.5 508C589.52 503.11 589.04 488.49 590.19 483.69C591.19 479.48 594.59 474.93 596.84 471.34C600.49 465.54 603.2 459.15 606.84 453.34C612.7 444 616.99 433.68 622.84 424.34C625.98 419.34 628.02 413.66 631.16 408.66C644.41 387.53 654.6 364.47 667.84 343.34C669.95 339.99 671.05 336.01 673.16 332.66C682.37 317.97 689.63 302.04 698.84 287.34C700.55 284.62 701.45 281.38 703.16 278.66C708.22 270.57 712.09 261.74 717.16 253.66C723.59 243.4 729.61 232.28 735 221.5C730.06 216.56 714.53 209.42 707.69 206.81C704.44 205.57 701.56 203.43 698.31 202.19C682.86 196.3 667.74 189.77 651.69 185.81C643.49 183.79 635.57 180.84 627.31 179.19C612.1 176.14 596.75 174.43 581.47 172.03C577.9 171.47 574.1 172.53 570.53 171.97C557.37 169.91 537.63 169.91 524.47 171.97C520.9 172.53 517.1 171.47 513.53 172.03C507.91 172.91 502.17 173.15 496.53 174.03C472.66 177.77 449.46 183.1 426.31 190.81C410.54 196.07 395.29 202.37 380.34 209.84C373.7 213.16 365.26 216.24 360 221.5C365.41 232.31 371.4 243.38 377.84 253.66C383.31 262.37 387.38 271.95 392.84 280.66C394.55 283.38 395.45 286.62 397.16 289.34C406.76 304.66 414.24 321.34 423.84 336.66C426.98 341.66 429.02 347.34 432.16 352.34C442.16 368.29 449.84 385.71 459.84 401.66C462.98 406.66 465.02 412.34 468.16 417.34C475.44 428.96 480.87 441.73 488.16 453.34C492.19 459.78 495.12 466.91 499.16 473.34C501.07 476.39 503.96 480.1 504.81 483.69C505.96 488.49 505.48 503.11 504.5 508C456.17 421 407.83 334 359.5 247C358.39 252.57 359 258.77 359 264.5C359 275.83 359 287.17 359 298.5C359 332.83 359 367.17 359 401.5C359 509.83 359 618.17 359 726.5C359 763.83 359 801.17 359 838.5C359 847.5 359 856.5 359 865.5C359 869.35 358 873.5 361.66 875.84C364.98 877.98 368.99 879.06 372.34 881.16C387.15 890.44 404.14 896.02 420.31 902.19C450.2 913.58 478.47 918.1 509.53 922.97C512.45 923.43 515.56 922.73 518.5 923C519.98 923.13 521.1 923.74 522.53 923.97C528.05 924.83 533.94 923.49 539.5 924C540.98 924.13 542.1 924.74 543.53 924.97C547.36 925.57 550.91 924.6 554.53 924.03C561.42 922.95 568.67 924.11 575.53 923.03C578.78 922.52 582.22 923.48 585.47 922.97C600.11 920.68 614.74 918.73 629.31 915.81C637.54 914.17 645.53 911.2 653.69 909.19C675.95 903.7 697.68 893.95 718.03 883.53C721.25 881.88 734.78 876.4 735.81 873.31C736.74 870.52 736 866.43 736 863.5C736 856.17 736 848.83 736 841.5C736 816.83 736 792.17 736 767.5C736 686.02 736 604.54 736 523.06C740 523.06 744 523.06 748 523.06C748 637.37 748 751.69 748 866C755.81 862.88 763.19 856.52 770.03 851.53C786.35 839.62 801.06 826.44 815.5 812C829.33 798.17 842.04 783.63 853.47 767.97C861.91 756.4 868.56 743.77 876.16 731.66C882.31 721.84 888.06 710.52 892.19 699.69C896.17 689.24 901.09 679.41 904.19 668.69C904.82 666.5 906.26 664.55 906.81 662.31C910.37 647.9 915.02 633.83 917.81 619.31C920.03 607.77 921.16 596.05 922.97 584.47C923.48 581.22 922.52 577.78 923.03 574.53C924.41 565.71 924 556.56 924 547.5C924 540.45 925.06 532.48 923.97 525.53C923.27 521.08 923.63 516.74 922.97 512.53C922.56 509.89 922 507.8 922 505C842.35 505 762.7 505 683.06 505C683.06 501 683.06 497 683.06 493C766.2 493 849.35 493 932.5 493C933.46 497.82 934.21 502.69 934.97 507.53C935.43 510.45 934.57 513.55 935.03 516.47C935.83 521.59 935.27 526.63 936.03 531.47C937.65 541.77 937.65 553.23 936.03 563.53C935.37 567.75 936.63 572.25 935.97 576.47C934.21 587.73 933.73 599.2 931.97 610.47C930.37 620.67 927.21 630.57 925.19 640.69C923.52 649.02 920.85 657.05 918.81 665.31C918.26 667.55 916.82 669.5 916.19 671.69C906.6 704.91 886.89 742.14 866.53 770.03C862.44 775.63 858.55 781.37 854.47 786.97C850.15 792.89 844.79 798.05 840.47 803.97C838.4 806.8 835.18 808.76 833 811.5C826.77 819.34 819.34 826.77 811.5 833C806.09 837.3 801.61 842.46 796.03 846.53C789.74 851.12 784.27 856.87 777.97 861.47C765.9 870.28 753.02 877.9 740.34 885.84C737.62 887.55 734.38 888.45 731.66 890.16C714.87 900.68 695.99 907.21 677.69 914.19C672.64 916.11 667.57 918.52 662.31 919.81C643 924.58 624.04 929.9 604.47 932.97C595.52 934.37 586.4 934.57 577.47 935.97C573.57 936.58 569.43 935.42 565.53 936.03C554.09 937.82 540.91 937.82 529.47 936.03C525.9 935.47 522.1 936.33 518.5 936C513.55 935.55 508.38 934.8 503.47 934.03C501.52 933.73 499.48 934.27 497.53 933.97C464.77 928.84 433.03 920.76 401.69 908.81C383.49 901.87 364.31 892.01 347.97 881.53C337.59 874.88 326.99 868.73 317.03 861.47C308.41 855.18 300.64 847.75 292.03 841.47C289.2 839.4 287.24 836.18 284.5 834C275.98 827.23 267.77 819.02 261 810.5C258.82 807.76 255.6 805.8 253.53 802.97C247.25 794.36 239.82 786.59 233.53 777.97C213.66 750.74 196.28 720.03 184.19 688.31C173.85 661.19 166.47 632.83 162.03 604.47C161.25 599.48 160.81 594.44 160.03 589.47C159.62 586.87 160.38 584.13 159.97 581.53C158.01 569.03 158 556.35 158 543.5C158 539.01 157.34 533.96 158.03 529.53C158.86 524.24 159.14 518.76 159.97 513.47C160.38 510.87 159.62 508.13 160.03 505.53C162.27 491.24 164.34 476.92 167.19 462.69C172.57 435.79 183.5 410.55 193.5 385C196.9 376.31 201.92 367.2 206.84 359.34C215.74 345.16 223.66 330.56 233.53 317.03C236.6 312.82 240.4 309.17 243.47 304.97C247.1 299.99 251.16 295.33 255 290.5C257.04 287.93 259.96 286.07 262 283.5C268.23 275.66 275.66 268.23 283.5 262C286.07 259.96 287.93 257.04 290.5 255C295.33 251.16 299.99 247.1 304.97 243.47C309.17 240.4 312.82 236.6 317.03 233.53C328.91 224.86 341.65 217.47 354.03 209.53C356.32 208.06 359.04 207.29 361.34 205.84C371.56 199.43 383.4 193.49 394.69 189.19C407.07 184.47 419.44 178.99 432.31 175.81C435.84 174.94 439.16 173.06 442.69 172.19C463.57 167.03 484.39 163.34 505.53 160.03C513.07 158.85 520.93 160.15 528.47 158.97C540.48 157.09 554.52 157.09 566.53 158.97C574.07 160.15 581.93 158.85 589.47 160.03C603.75 162.27 618.09 164.34 632.31 167.19C638.98 168.52 645.69 170.55 652.31 172.19C655.84 173.06 659.16 174.94 662.69 175.81C673.43 178.46 683.36 182.88 693.69 186.81C715.28 195.05 736.55 206.08 755.97 218.53C767.5 225.92 778.02 234.44 789.03 242.47C804.25 253.57 823.2 270.65 835 285.5C839.3 290.91 844.46 295.39 848.53 300.97C855.18 310.08 864.72 318.45 869 328.96ZM346 229C333.89 234.98 323.75 244.6 312.97 252.47C296.45 264.52 274.54 284.42 262.47 300.97C259.56 304.95 255.44 308.05 252.53 312.03C246.92 319.73 241.15 327.33 235.53 335.03C233.94 337.21 232.92 339.7 231.47 341.97C217.39 363.93 204.54 387.15 195.19 411.69C152.62 523.32 164.61 648.85 229.47 750.03C237.94 763.24 247.33 775.35 256.53 787.97C259.87 792.54 264.48 796.07 268 800.5C275.28 809.67 284.48 819.61 293.97 826.53C296.43 828.33 298.12 831.11 300.5 833C303.28 835.21 306.1 837.44 308.97 839.53C310.49 840.64 311.51 842.36 313.03 843.47C322.37 850.28 335.68 861.87 346 866C346 653.67 346 441.33 346 229ZM571 616.5C571 640.17 571 663.83 571 687.5C575.55 691.19 581.39 693.05 586.34 696.16C592.32 699.9 598.68 703.09 604.66 706.84C609.02 709.58 615.4 711.74 618.81 715.69C621.16 718.4 620 724.2 620 727.5C620 731.94 621.67 740.14 617.97 743.47C613.17 747.79 604.37 742.44 599.31 741.19C586.68 738.07 574.32 733.93 561.69 730.81C556.56 729.55 550.98 726.18 545.53 727.03C539.02 728.05 532.7 731.24 526.31 732.81C515.4 735.51 504.07 738.07 493.5 742C488.15 743.99 477.73 748.19 474.53 740.97C473.23 738.04 474 733.69 474 730.5C474 726.72 472.99 721.28 474.19 717.69C475.7 713.14 483.34 710.79 486.97 708.47C494.96 703.34 503.6 699.21 511.66 694.16C515.38 691.82 519.57 690.29 522.99 687.5C522.99 663.67 522.99 639.83 522.99 616C508.81 621.7 493.96 625.74 479.69 631.19C460.74 638.41 441.56 645.4 422.31 651.81C416.08 653.89 409.92 656.11 403.69 658.19C401.31 658.98 398.06 661.25 395.53 660.97C392.62 660.65 389.83 657.02 389.19 654.31C388.08 649.69 388.16 635.07 390.53 631.03C391.75 628.96 395.04 627.73 396.97 626.47C402.97 622.54 409.16 618.62 414.97 614.47C439.89 596.67 465.4 579.33 491.03 562.53C497.65 558.2 503.98 553.34 510.66 549.16C513.18 547.58 521.23 543.39 522.47 540.97C523.77 538.43 523 534.31 523 531.5C523 524.5 523 517.5 523 510.5C523 493.12 521.3 474.5 523.97 457.47C524.43 454.55 523.57 451.45 524.03 448.53C524.56 445.15 525.14 441.66 525.81 438.31C527.83 428.24 531.32 410.2 544.5 409C561.21 407.48 565.6 424.39 568.19 437.31C572.89 460.84 571 486.23 571 510.5C571 517.5 571 524.5 571 531.5C571 534.31 570.23 538.43 571.53 540.97C572.94 543.72 578.45 545.88 580.97 547.53C588.03 552.16 594.87 556.98 601.97 561.53C626.78 577.43 650.39 595.32 675.03 611.47C681.48 615.69 687.82 619.94 694.03 624.47C697.07 626.69 701.2 627.85 703.47 631.03C705.91 634.46 705.84 651.01 704.81 655.31C704.09 658.35 700.69 661.2 697.53 660.97C696.01 660.86 694.7 659.72 693.31 659.19C686.22 656.48 678.89 654.21 671.69 651.81C648.93 644.23 626.69 634.45 603.69 627.81C595.37 625.41 586.8 621.9 578.69 618.81C575.94 617.76 573.85 616.5 571 616.5Z" fill="#ffffff" fill-rule="evenodd" stroke="#ffffff" stroke-width="0.25" stroke-linejoin="round"/>
</svg>